<svg xmlns="http://www.w3.org/2000/svg" xmlns:xlink="http://www.w3.org/1999/xlink" viewBox="0 0 256 256">
  <title>lanius — shrike sticker (die-cut)</title>
  <defs>
    <!-- silhouette for the die-cut border layers -->
    <g id="cut">
      <path d="M26 194 C90 188 160 176 228 164 L229 171 C162 182 92 194 28 205 Z"/>
      <path d="M192 174 C194 154 198 135 204 116 C204.8 136 205.4 156 206 174 Z"/>
      <circle cx="201" cy="140" r="11"/>
      <path d="M68 191 C71 182 74 176 79 172 C79.5 179 81.5 185 85 189 Z"/>
      <path d="M143 181 C146 173 149 167 154 163 C154.5 170 156.5 175 160 178 Z"/>
      <path d="M104 152 L60 184 C54 188 46 187 45 181 C44.5 177 47 173 51 170 L96 140 Z"/>
      <path d="M150 102 C160 116 162 136 152 152 C144 166 128 174 112 170 C96 166 88 152 90 136 C92 120 102 108 114 100 C126 96 142 96 150 102 Z"/>
      <circle cx="132" cy="84" r="30"/>
      <path d="M153 71 C168 68.5 180 74 184.5 83 C186 87.5 183.5 92 178 93.5 C179.5 88.5 177.5 84.5 173 82 C168 85.8 161.5 87.2 155.5 86.6 Z"/>
    </g>
    <clipPath id="bodyClip">
      <path d="M150 102 C160 116 162 136 152 152 C144 166 128 174 112 170 C96 166 88 152 90 136 C92 120 102 108 114 100 C126 96 142 96 150 102 Z"/>
    </clipPath>
  </defs>

  <!-- die-cut: grey keyline, then white border -->
  <use href="#cut" xlink:href="#cut" fill="#D9DDE1" stroke="#D9DDE1" stroke-width="26" stroke-linejoin="round" stroke-linecap="round"/>
  <use href="#cut" xlink:href="#cut" fill="#FFFFFF" stroke="#FFFFFF" stroke-width="14" stroke-linejoin="round" stroke-linecap="round"/>

  <!-- the branch and its larder -->
  <path fill="#16181D" d="M26 194 C90 188 160 176 228 164 L229 171 C162 182 92 194 28 205 Z"/>
  <path fill="#16181D" d="M68 191 C71 182 74 176 79 172 C79.5 179 81.5 185 85 189 Z"/>
  <path fill="#16181D" d="M143 181 C146 173 149 167 154 163 C154.5 170 156.5 175 160 178 Z"/>
  <circle cx="201" cy="140" r="11" fill="var(--accent, #E5484D)" stroke="#16181D" stroke-width="3"/>
  <path fill="#16181D" d="M192 174 C194 154 198 135 204 116 C204.8 136 205.4 156 206 174 Z"/>
  <circle cx="193.5" cy="134.5" r="2.2" fill="#FFFFFF"/>

  <!-- the shrike -->
  <path fill="#16181D" d="M104 152 L60 184 C54 188 46 187 45 181 C44.5 177 47 173 51 170 L96 140 Z"/>
  <path fill="#C9CFD6" stroke="#16181D" stroke-width="3" stroke-linejoin="round" d="M150 102 C160 116 162 136 152 152 C144 166 128 174 112 170 C96 166 88 152 90 136 C92 120 102 108 114 100 C126 96 142 96 150 102 Z"/>
  <g clip-path="url(#bodyClip)">
    <ellipse cx="134" cy="142" rx="26" ry="30" fill="#FFFFFF"/>
  </g>
  <path fill="#16181D" d="M116 104 C102 112 92 130 94 152 C95 160 100 164 106 162 C102 142 108 122 122 108 Z"/>
  <path fill="#FFFFFF" d="M96 131 L105 127 L107 134 L98 138 Z"/>
  <circle cx="132" cy="84" r="30" fill="#C9CFD6" stroke="#16181D" stroke-width="3"/>
  <path fill="#16181D" d="M106 70 C120 60 146 60 158 70 L158 86 C146 78 120 78 106 86 Z"/>
  <circle cx="142" cy="71" r="6" fill="#FFFFFF"/>
  <circle cx="143" cy="71" r="3" fill="#16181D"/>
  <circle cx="141.5" cy="69.3" r="1.1" fill="#FFFFFF"/>
  <path fill="#16181D" d="M153 71 C168 68.5 180 74 184.5 83 C186 87.5 183.5 92 178 93.5 C179.5 88.5 177.5 84.5 173 82 C168 85.8 161.5 87.2 155.5 86.6 Z"/>
  <g stroke="#16181D" stroke-width="5" stroke-linecap="round">
    <path d="M116 164 L114 184"/>
    <path d="M130 162 L129 182"/>
  </g>
</svg>
