<svg xmlns="http://www.w3.org/2000/svg" viewBox="0 0 296 76" style="color:#16181D">
  <title>lanius — thorn lockup</title>
  <!-- the thorn mark (accent; set to currentColor for mono) -->
  <path fill="var(--accent, #E5484D)" transform="translate(-16 -4.2) scale(1.29)" d="M16 56 C16 34 30 16 54 8 C40 24 34 38 34 56 Z"/>
  <g transform="translate(64 0)">
    <g fill="none" stroke="currentColor" stroke-width="11" stroke-linecap="round" stroke-linejoin="round">
      <path d="M16 11 L16 62.5"/>
      <circle cx="50" cy="48" r="14.5"/>
      <path d="M64.5 33.5 V62.5"/>
      <path d="M84 62.5 V33.5 M84 46 C84 39 89.5 33.5 98 33.5 C106.5 33.5 112 39 112 46 V62.5"/>
      <path d="M130 33.5 V62.5"/>
      <path d="M148 33.5 V50 C148 57.5 154 62.5 162 62.5 C170 62.5 176 57.5 176 50 V33.5"/>
      <path d="M218.5 38.5 C216 35 211.5 33.5 206.5 33.5 C199.5 33.5 195 36.5 195 41 C195 45.5 199.5 47 206.5 48 C213.5 49 218 50.5 218 55 C218 59.5 213 62.5 206.5 62.5 C201.5 62.5 197 61 194.5 57.5"/>
    </g>
    <path fill="var(--accent, #E5484D)" d="M125.8 24 C125.8 16 130.8 9.6 139.4 6.7 C134.4 12.4 132.2 17.5 132.2 24 Z"/>
  </g>
</svg>
